<mxfile host="app.diagrams.net" modified="2023-10-22T09:10:28.302Z" agent="Mozilla/5.0 (Windows NT 10.0; Win64; x64) AppleWebKit/537.36 (KHTML, like Gecko) Chrome/118.0.0.0 Safari/537.36 Edg/118.0.2088.61" version="22.0.6" etag="QKNWl_DTZRuX27KMVMDc" type="github">
  <diagram name="第 1 页" id="pat_4hXew9VAyKblo6Y8">
    <mxGraphModel>
      <root>
        <mxCell id="0" />
        <mxCell id="1" parent="0" />
      </root>
    </mxGraphModel>
  </diagram>
</mxfile>
